<svg width="196" height="40" viewBox="0 0 196 40" fill="none" xmlns="http://www.w3.org/2000/svg">
<g clip-path="url(#clip0_239_6751)">
<path d="M0 0V40H196V0H0ZM30.609 16.799L23.552 23.676L23.271 23.951L23.337 24.34L25.003 34.049C25.008 34.0805 25.0043 34.1128 24.9923 34.1424C24.9803 34.172 24.9605 34.1978 24.935 34.217C24.9088 34.2355 24.878 34.2466 24.8459 34.2491C24.8139 34.2516 24.7818 34.2453 24.753 34.231L16.035 29.647L15.685 29.462L15.335 29.647L6.615 34.231C6.59134 34.2457 6.56384 34.253 6.536 34.252C6.49962 34.2505 6.46434 34.2391 6.434 34.219C6.40824 34.2 6.38824 34.1743 6.37624 34.1446C6.36423 34.115 6.36069 34.0826 6.366 34.051L8.032 24.341L8.098 23.953L7.816 23.678L0.761 16.8C0.738188 16.7775 0.72201 16.7492 0.714247 16.7182C0.706485 16.6871 0.707437 16.6545 0.717 16.624C0.727041 16.5935 0.745358 16.5664 0.769905 16.5458C0.794451 16.5251 0.82426 16.5117 0.856 16.507L10.606 15.091L10.996 15.034L11.171 14.68L15.531 5.845C15.5455 5.81665 15.5676 5.79285 15.5947 5.77623C15.6219 5.75962 15.6531 5.75082 15.685 5.75082C15.7169 5.75082 15.7481 5.75962 15.7753 5.77623C15.8024 5.79285 15.8245 5.81665 15.839 5.845L20.198 14.679L20.374 15.033L20.763 15.09L30.513 16.506C30.577 16.516 30.63 16.561 30.652 16.623C30.672 16.686 30.654 16.753 30.609 16.799ZM71.225 16.798L64.168 23.675L63.887 23.95L63.953 24.339L65.619 34.048C65.6239 34.0795 65.6201 34.1118 65.6081 34.1414C65.5962 34.1709 65.5764 34.1967 65.551 34.216C65.5248 34.2345 65.494 34.2457 65.462 34.2483C65.43 34.2509 65.3979 34.245 65.369 34.231V34.229L56.651 29.645L56.301 29.461L55.951 29.645L47.231 34.231C47.2071 34.2452 47.1798 34.2525 47.152 34.252C47.1155 34.251 47.0801 34.2396 47.05 34.219C47.0242 34.2 47.0042 34.1743 46.9922 34.1446C46.9802 34.115 46.9767 34.0826 46.982 34.051L48.648 24.341L48.714 23.953L48.432 23.678L41.377 16.8C41.3542 16.7775 41.338 16.7492 41.3302 16.7182C41.3225 16.6871 41.3234 16.6545 41.333 16.624C41.343 16.5935 41.3614 16.5664 41.3859 16.5458C41.4105 16.5251 41.4403 16.5117 41.472 16.507L51.222 15.091L51.612 15.034L51.787 14.68L56.147 5.846C56.1612 5.8173 56.183 5.79312 56.2102 5.77618C56.2373 5.75924 56.2687 5.75021 56.3007 5.7501C56.3327 5.75 56.3641 5.75882 56.3913 5.77559C56.4186 5.79235 56.4407 5.81639 56.455 5.845L60.814 14.679L60.99 15.033L61.379 15.09L71.129 16.506C71.193 16.516 71.246 16.561 71.268 16.623C71.2775 16.6533 71.2785 16.6857 71.2709 16.7165C71.2633 16.7473 71.2475 16.7755 71.225 16.798ZM112.563 16.798L105.506 23.675L105.225 23.95L105.291 24.339L106.957 34.048C106.962 34.0795 106.958 34.1118 106.946 34.1414C106.934 34.1709 106.914 34.1967 106.889 34.216C106.863 34.2345 106.832 34.2457 106.8 34.2483C106.768 34.2509 106.736 34.245 106.707 34.231V34.229L97.989 29.645L97.639 29.461L97.289 29.645L88.569 34.231C88.5451 34.2452 88.5178 34.2525 88.49 34.252C88.4535 34.251 88.4181 34.2396 88.388 34.219C88.3622 34.2 88.3422 34.1743 88.3302 34.1446C88.3182 34.115 88.3147 34.0826 88.32 34.051L89.986 24.341L90.052 23.953L89.77 23.678L82.715 16.8C82.6922 16.7775 82.676 16.7492 82.6683 16.7182C82.6605 16.6871 82.6614 16.6545 82.671 16.624C82.681 16.5935 82.6994 16.5664 82.7239 16.5458C82.7485 16.5251 82.7783 16.5117 82.81 16.507L92.56 15.091L92.95 15.034L93.125 14.68L97.485 5.846C97.4992 5.8173 97.521 5.79312 97.5482 5.77618C97.5753 5.75924 97.6067 5.75021 97.6387 5.7501C97.6707 5.75 97.7021 5.75882 97.7294 5.77559C97.7566 5.79235 97.7787 5.81639 97.793 5.845L102.152 14.679L102.328 15.033L102.717 15.09L112.467 16.506C112.531 16.516 112.584 16.561 112.606 16.623C112.615 16.6533 112.616 16.6856 112.609 16.7164C112.601 16.7472 112.585 16.7754 112.563 16.798ZM153.898 16.798L146.839 23.675L146.56 23.95L146.624 24.339L148.289 34.048C148.294 34.0792 148.29 34.1112 148.279 34.1406C148.267 34.1701 148.248 34.196 148.224 34.216C148.197 34.2345 148.166 34.2456 148.134 34.2482C148.102 34.2509 148.069 34.2449 148.04 34.231V34.229L139.319 29.645L138.969 29.461L138.618 29.645L129.898 34.231C129.874 34.2453 129.846 34.2525 129.818 34.252C129.781 34.2506 129.746 34.2392 129.715 34.219C129.689 34.2001 129.669 34.1744 129.657 34.1446C129.645 34.1149 129.642 34.0825 129.648 34.051L131.314 24.341L131.378 23.953L131.099 23.678L124.041 16.801C124.018 16.7785 124.002 16.7502 123.994 16.7192C123.986 16.6881 123.987 16.6555 123.997 16.625C124.007 16.5943 124.026 16.567 124.051 16.5463C124.076 16.5256 124.106 16.5123 124.138 16.508L133.888 15.092L134.279 15.035L134.454 14.681L138.814 5.847C138.828 5.81821 138.849 5.7939 138.876 5.77685C138.903 5.7598 138.935 5.7507 138.967 5.7506C138.999 5.7505 139.03 5.75939 139.057 5.77626C139.084 5.79313 139.106 5.8173 139.12 5.846L143.477 14.68L143.654 15.034L144.044 15.091L153.794 16.507C153.857 16.517 153.911 16.562 153.935 16.624C153.947 16.6534 153.95 16.6856 153.943 16.7166C153.936 16.7476 153.921 16.7759 153.898 16.798ZM195.236 16.798L188.181 23.675L187.898 23.95L187.963 24.339L189.628 34.048C189.634 34.0794 189.63 34.1117 189.619 34.1414C189.607 34.171 189.587 34.1969 189.562 34.216C189.536 34.2346 189.505 34.2458 189.473 34.2484C189.44 34.2511 189.408 34.245 189.379 34.231V34.229L180.66 29.645L180.307 29.461L179.957 29.645L171.236 34.231C171.213 34.2453 171.185 34.2526 171.158 34.252C171.122 34.2509 171.086 34.2394 171.056 34.219C171.03 34.2005 171.009 34.1748 170.997 34.145C170.985 34.1152 170.982 34.0826 170.988 34.051L172.654 24.341L172.72 23.953L172.437 23.678L165.381 16.801C165.358 16.7785 165.342 16.75 165.334 16.7188C165.327 16.6875 165.328 16.6548 165.338 16.6243C165.348 16.5938 165.367 16.5668 165.392 16.5462C165.416 16.5256 165.446 16.5124 165.478 16.508L175.228 15.092L175.618 15.035L175.793 14.681L180.154 5.847C180.168 5.81821 180.189 5.7939 180.216 5.77685C180.243 5.7598 180.275 5.7507 180.307 5.7506C180.339 5.7505 180.37 5.75939 180.397 5.77626C180.424 5.79313 180.446 5.8173 180.46 5.846L184.817 14.68L184.993 15.034L185.386 15.091L195.136 16.507C195.199 16.517 195.25 16.562 195.273 16.624H195.275C195.287 16.6535 195.29 16.686 195.283 16.7171C195.276 16.7482 195.259 16.7765 195.236 16.798Z" fill="white"/>
<path d="M111.996 16.784C111.98 16.7346 111.95 16.6907 111.911 16.6573C111.871 16.6239 111.822 16.6023 111.771 16.595L102.486 15.246L102.174 15.201L102.034 14.918L97.882 6.505C97.8592 6.4586 97.8238 6.41952 97.7799 6.39219C97.736 6.36486 97.6853 6.35038 97.6335 6.35038C97.5818 6.35038 97.5311 6.36486 97.4872 6.39219C97.4433 6.41952 97.4079 6.4586 97.385 6.505L96.87 6.25L97.386 6.505L93.234 14.918L93.094 15.201L92.782 15.246L83.497 16.595C83.446 16.6026 83.398 16.6244 83.3586 16.6577C83.3191 16.6911 83.2898 16.7348 83.2738 16.7839C83.2578 16.833 83.2558 16.8856 83.268 16.9358C83.2803 16.986 83.3062 17.0318 83.343 17.068L90.061 23.617L90.287 23.838L90.234 24.149L88.648 33.396M111.996 16.784C112.012 16.8333 112.013 16.8859 112.001 16.936C111.988 16.9861 111.962 17.0318 111.925 17.068L105.206 23.617L104.98 23.838L105.034 24.149L106.62 33.396C106.629 33.447 106.624 33.4995 106.604 33.5475C106.585 33.5955 106.552 33.6369 106.51 33.667C106.468 33.6972 106.418 33.7151 106.367 33.7188C106.315 33.7225 106.263 33.7119 106.217 33.688L97.914 29.323L97.635 29.177L97.356 29.323L89.05 33.688M138.718 6.505C138.741 6.45867 138.777 6.41965 138.821 6.39229C138.865 6.36493 138.915 6.35029 138.967 6.35C139.019 6.35019 139.069 6.36468 139.113 6.39186C139.157 6.41904 139.193 6.45785 139.216 6.504L143.368 14.917L143.508 15.2L143.821 15.245L153.106 16.594C153.157 16.6014 153.205 16.6231 153.245 16.6565C153.284 16.6898 153.314 16.7336 153.33 16.7829C153.346 16.8321 153.348 16.8848 153.335 16.935C153.323 16.9853 153.296 17.031 153.259 17.067L146.54 23.616L146.315 23.837L146.368 24.148L147.954 33.395C147.963 33.4462 147.958 33.4989 147.939 33.5472C147.919 33.5955 147.887 33.6373 147.844 33.6678C147.802 33.6983 147.752 33.7163 147.701 33.7197C147.649 33.7231 147.597 33.7118 147.551 33.687L139.247 29.322L138.968 29.176L138.689 29.322L130.384 33.687C130.345 33.7082 130.301 33.7195 130.256 33.72C130.216 33.7202 130.175 33.7114 130.139 33.6944C130.102 33.6774 130.069 33.6525 130.043 33.6215C130.017 33.5906 129.998 33.5542 129.987 33.5151C129.977 33.4759 129.975 33.4349 129.982 33.395L131.568 24.148L131.622 23.837L131.396 23.616L124.677 17.067C124.639 17.031 124.613 16.9851 124.6 16.9347C124.588 16.8842 124.589 16.8312 124.606 16.7817C124.622 16.7323 124.652 16.6884 124.692 16.6552C124.732 16.622 124.78 16.6008 124.832 16.594L134.115 15.245L134.428 15.2L134.569 14.917L138.718 6.505V6.505ZM56.051 6.505C56.0742 6.45889 56.1098 6.42012 56.1537 6.393C56.1976 6.36588 56.2481 6.35146 56.2997 6.35136C56.3514 6.35125 56.402 6.36547 56.446 6.39241C56.49 6.41936 56.5257 6.45799 56.549 6.504L60.701 14.917L60.841 15.2L61.154 15.245L70.439 16.594C70.4903 16.6014 70.5384 16.6231 70.5779 16.6565C70.6175 16.6898 70.6469 16.7336 70.6628 16.7829C70.6787 16.8321 70.6805 16.8848 70.668 16.935C70.6555 16.9853 70.6292 17.031 70.592 17.067L63.8731 23.616L63.648 23.837L63.701 24.148L65.2871 33.395C65.2963 33.4462 65.291 33.4989 65.2716 33.5472C65.2522 33.5955 65.2195 33.6373 65.1774 33.6678C65.1353 33.6983 65.0854 33.7163 65.0335 33.7197C64.9816 33.7231 64.9298 33.7118 64.8841 33.687L56.5801 29.322L56.301 29.176L56.022 29.322L47.717 33.687C47.6777 33.7082 47.6338 33.7195 47.5891 33.72C47.5485 33.7202 47.5084 33.7114 47.4716 33.6944C47.4348 33.6774 47.4022 33.6525 47.3761 33.6215C47.3499 33.5906 47.3309 33.5542 47.3204 33.5151C47.3098 33.4759 47.308 33.4349 47.315 33.395L48.9011 24.148L48.9551 23.837L48.729 23.616L42.01 17.067C41.9725 17.031 41.9458 16.9851 41.9332 16.9347C41.9206 16.8842 41.9225 16.8312 41.9387 16.7817C41.9549 16.7323 41.9847 16.6884 42.0248 16.6552C42.0648 16.622 42.1135 16.6008 42.1651 16.594L51.4481 15.245L51.7611 15.2L51.9021 14.917L56.051 6.505V6.505ZM15.436 6.505C15.4592 6.45867 15.4947 6.41965 15.5386 6.39229C15.5826 6.36493 15.6333 6.35029 15.685 6.35C15.7367 6.35019 15.7873 6.36468 15.8313 6.39186C15.8752 6.41904 15.9108 6.45785 15.934 6.504L20.086 14.917L20.226 15.2L20.539 15.245L29.824 16.594C29.8753 16.6014 29.9234 16.6231 29.9629 16.6565C30.0025 16.6898 30.0319 16.7336 30.0478 16.7829C30.0637 16.8321 30.0655 16.8848 30.053 16.935C30.0405 16.9853 30.0142 17.031 29.977 17.067L23.258 23.616L23.033 23.837L23.086 24.148L24.672 33.395C24.6813 33.4462 24.676 33.4989 24.6566 33.5472C24.6372 33.5955 24.6046 33.6373 24.5624 33.6678C24.5203 33.6983 24.4704 33.7163 24.4185 33.7197C24.3666 33.7231 24.3148 33.7118 24.269 33.687L15.965 29.322L15.686 29.176L15.407 29.322L7.10205 33.687C7.06267 33.7082 7.01875 33.7195 6.97405 33.72C6.93351 33.7202 6.89342 33.7114 6.85663 33.6944C6.81983 33.6774 6.78721 33.6525 6.76108 33.6215C6.73495 33.5906 6.71594 33.5542 6.70539 33.5151C6.69485 33.4759 6.69302 33.4349 6.70005 33.395L8.28605 24.148L8.34005 23.837L8.11405 23.616L1.39505 17.067C1.35747 17.031 1.33082 16.9851 1.31819 16.9347C1.30556 16.8842 1.30746 16.8312 1.32366 16.7817C1.33986 16.7323 1.36971 16.6884 1.40977 16.6552C1.44983 16.622 1.49846 16.6008 1.55005 16.594L10.833 15.245L11.146 15.2L11.287 14.917L15.436 6.505V6.505ZM180.056 6.505C180.079 6.45867 180.115 6.41965 180.159 6.39229C180.203 6.36493 180.253 6.35029 180.305 6.35C180.357 6.35019 180.407 6.36468 180.451 6.39186C180.495 6.41904 180.531 6.45785 180.554 6.504L184.706 14.917L184.846 15.2L185.159 15.245L194.444 16.594C194.495 16.6014 194.543 16.6231 194.583 16.6565C194.622 16.6898 194.652 16.7336 194.668 16.7829C194.684 16.8321 194.686 16.8848 194.673 16.935C194.661 16.9853 194.634 17.031 194.597 17.067L187.878 23.616L187.653 23.837L187.706 24.148L189.292 33.395C189.301 33.4462 189.296 33.4989 189.277 33.5472C189.257 33.5955 189.225 33.6373 189.182 33.6678C189.14 33.6983 189.09 33.7163 189.038 33.7197C188.987 33.7231 188.935 33.7118 188.889 33.687L180.585 29.322L180.306 29.176L180.027 29.322L171.722 33.687C171.683 33.7082 171.639 33.7195 171.594 33.72C171.553 33.7202 171.513 33.7114 171.477 33.6944C171.44 33.6774 171.407 33.6525 171.381 33.6215C171.355 33.5906 171.336 33.5542 171.325 33.5151C171.315 33.4759 171.313 33.4349 171.32 33.395L172.906 24.148L172.96 23.837L172.734 23.616L166.015 17.067C165.977 17.031 165.951 16.9851 165.938 16.9347C165.926 16.8842 165.927 16.8312 165.944 16.7817C165.96 16.7323 165.99 16.6884 166.03 16.6552C166.07 16.622 166.118 16.6008 166.17 16.594L175.453 15.245L175.766 15.2L175.907 14.917L180.056 6.505V6.505ZM89.05 33.688C89.0103 33.7092 88.9661 33.7205 88.921 33.721C88.8624 33.7207 88.8053 33.7018 88.758 33.667L89.05 33.688Z" stroke="#F8A504" stroke-width="1.2"/>
</g>
<defs>
<clipPath id="clip0_239_6751">
<rect width="196" height="40" fill="white"/>
</clipPath>
</defs>
</svg>
